<svg class="bg_gradient_1" x="0px" y="0px" width="200px" height="150px" viewBox="0 0 200 150">
                    <g>
                        <linearGradient id="SVGID_1_" gradientUnits="userSpaceOnUse" x1="0.5435" y1="75.2192" x2="200" y2="75.2192">
                            <stop offset="0" style="stop-color:#EF3D5E"></stop>
                            <stop offset="1" style="stop-color:#F2647E"></stop>
                        </linearGradient>
                        <path fill="url(#SVGID_1_)" d="M152.97,150.438c-2.982,0-5.776-1.202-7.874-3.384L127.519,128.8l-30.779,0.001
                        c-51.246,0-51.534-0.005-51.724-0.009c-24.528-0.453-44.473-20.411-44.473-44.49c0-18.781,12.138-35.409,29.67-41.755
                        c1.952-17.835,17.378-31.767,36.056-31.767c7.694,0,15.035,2.375,21.098,6.639C95.781,6.564,108.92,0,123.388,0
                        c24.133,0,43.926,18.612,45.26,41.983C186.95,47.847,200,64.914,200,84.302c0,21.957-16.285,40.249-37.619,43.854l1.13,10.596
                        c0.326,3.032-0.654,6.039-2.681,8.251C158.827,149.187,155.96,150.438,152.97,150.438z"></path>
                    </g>
                </svg>