<svg id="Layer_1" data-name="Layer 1" xmlns="http://www.w3.org/2000/svg" xmlns:xlink="http://www.w3.org/1999/xlink" viewBox="0 0 650 210.75"><defs><style>.cls-1,.cls-2,.cls-3,.cls-4,.cls-5{fill-rule:evenodd;}.cls-1{fill:url(#linear-gradient);}.cls-2{fill:url(#linear-gradient-2);}.cls-3{fill:none;stroke:#221f1f;stroke-miterlimit:22.93;stroke-width:0.57px;}.cls-4{fill:url(#linear-gradient-3);}.cls-5{fill:url(#linear-gradient-4);}.cls-6{fill:#e13426;}</style><linearGradient id="linear-gradient" x1="418.78" y1="-28.51" x2="335.57" y2="-172.72" gradientTransform="translate(213.76 435.55) rotate(-90.08)" gradientUnits="userSpaceOnUse"><stop offset="0" stop-color="#f59064"/><stop offset="0.32" stop-color="#ef4c45"/><stop offset="0.62" stop-color="#cc203a"/><stop offset="0.73" stop-color="#b01c3a"/><stop offset="0.91" stop-color="#8d1639"/><stop offset="1" stop-color="#801439"/></linearGradient><linearGradient id="linear-gradient-2" x1="370.71" y1="-86.96" x2="268.2" y2="-163.89" gradientTransform="translate(213.76 435.55) rotate(-90.08)" gradientUnits="userSpaceOnUse"><stop offset="0" stop-color="#f59064"/><stop offset="0.32" stop-color="#ef4c45"/><stop offset="0.7" stop-color="#cc203a"/><stop offset="1" stop-color="#801439"/></linearGradient><linearGradient id="linear-gradient-3" x1="237.05" y1="-134.48" x2="335.45" y2="26.33" xlink:href="#linear-gradient-2"/><linearGradient id="linear-gradient-4" x1="283.09" y1="-295.87" x2="258.5" y2="-74.37" xlink:href="#linear-gradient-2"/></defs><path class="cls-1" d="M91.38,33.26,110.35,0l11.16,19.44,28,48.74C137.72,63.66,127,62.62,118,64.52c-12.3,2.59-21.52,10.63-26.25,22.76-4.93,12.65-3,25.28,7.82,38.63C71.5,96.1,76.43,65.25,91.38,33.26Z"/><path class="cls-2" d="M43.11,117.88,91.38,33.26c-14.95,32-19.88,62.84,8.21,92.65,1.49,1.84,3.16,3.68,5,5.55,11.58,11.93,15.15,16.95,12.63,23.39-2.22,5.7-9.09,8.71-19.28,4.74C91.72,157.17,62.67,134,43.11,117.88Z"/><polygon class="cls-3" points="147.03 157.71 147.01 157.62 147.02 157.63 147.03 157.71"/><path class="cls-4" d="M146.3,146.41c-1.85-10.7-8.88-20.36-16.27-28-9.88-10.07-13.61-16-10.86-23,7.51-19.26,37.19,3.32,45.67,11.63,23.84,23.4,42.48,61.93,56.39,86.15l-81.28.11C147.48,182,150.19,167.21,146.3,146.41Z"/><path class="cls-5" d="M0,193.45l31.2-54.7c20.54,16.64,50.6,39.93,58,42.81,14.45,5.63,27.2,5.44,37.1,1a35.08,35.08,0,0,0,18.37-19.78,30.1,30.1,0,0,0,1.63-16.38c3.89,20.8,1.18,35.59-6.35,46.85l-14.72,0-14.62,0Z"/><path class="cls-6" d="M222,193.49V67.87h27v34.45a26.21,26.21,0,0,1,8.36-8.67Q261.87,91,268.93,91q9.44,0,14.5,6,4.85,6,4.84,15.58v81h-27V124.81q0-4.91-.62-6.14a5.45,5.45,0,0,0-5.52-3.45c-2.51,0-4.27,1.3-5.3,3.91a18.9,18.9,0,0,0-.84,5.68v68.68Z"/><path class="cls-6" d="M300.55,166.94V119.59q0-11.13,6.44-18.72Q315.51,91,333.7,91q17.49,0,26.7,9.9,6.45,7.44,6.45,18.72v47.35q0,11.12-6.45,18.64-8.44,9.9-26.7,9.9-17.43,0-26.71-9.9Q300.54,178.21,300.55,166.94Zm27-49.19v51a14.13,14.13,0,0,0,.69,5.37c.82,1.89,2.63,2.84,5.45,2.84a5.78,5.78,0,0,0,5.37-2.69,16.32,16.32,0,0,0,.76-5.52v-51a15.37,15.37,0,0,0-.61-5.37c-.82-1.9-2.66-2.84-5.52-2.84s-4.38.74-5,2.22A12.83,12.83,0,0,0,327.56,117.75Z"/><path class="cls-6" d="M379.12,210.75V93h27v9.13A21.91,21.91,0,0,1,414,93.5Q418.41,91,425.78,91q9.44,0,14.66,6.44,5,6.6,5,19v49q0,14.36-5.14,22.18a17.16,17.16,0,0,1-15,7.82,21.37,21.37,0,0,1-11.44-3,23.63,23.63,0,0,1-7.44-9.06l-.31,27.32Zm27-86.56v34.54c0,5.47.29,9,.85,10.66q1.38,5.69,6.06,5.68a5.56,5.56,0,0,0,4-1.53c.92-1,1.38-2.66,1.38-5.07V117.59a5.86,5.86,0,0,0-1.69-4.45,6.49,6.49,0,0,0-3.68-1.68c-2.3,0-4.07,1.3-5.29,3.91A24.41,24.41,0,0,0,406.13,124.19Z"/><path class="cls-6" d="M458.65,109.8v-20h54.64v20H497.88v83.46H474.06V109.8Z"/><path class="cls-6" d="M520,193.26V89.84h52.94v20H543.81v20.54h25.52v20H543.81v23h30.26v20Z"/><path class="cls-6" d="M580.64,193.26l20.08-55.79L581.84,89.84h25.58l8.15,29.38,8.53-29.38h24.76l-19.08,48.39,20.22,55h-25l-10.11-33.42-9.6,33.42Z"/></svg>