<svg width="15px" height="15px" viewBox="0 0 15 15" version="1.1" xmlns="http://www.w3.org/2000/svg" xmlns:xlink="http://www.w3.org/1999/xlink">
    <!-- Generator: Sketch 53.2 (72643) - https://sketchapp.com -->
    <title>形状@2x</title>
    <desc>Created with Sketch.</desc>
    <g id="网页钱包" stroke="none" stroke-width="1" fill="none" fill-rule="evenodd">
        <g id="资产首页_hover" transform="translate(-489.000000, -395.000000)" fill="#45BF55" fill-rule="nonzero">
            <g id="编组-3" transform="translate(489.000000, 389.000000)">
                <g id="分组-13备份-2" transform="translate(0.000000, 5.000000)">
                    <g id="编组-8">
                        <g id="编组-7">
                            <g id="蒙版">
                                <g id="编组-6">
                                    <g id="添加-(2)" transform="translate(0.000000, 1.000000)">
                                        <path d="M8.17021277,6.80851065 L10.893617,6.80851065 L10.893617,8.17021277 L8.17021277,8.17021277 L8.17021277,10.893617 L6.80851065,10.893617 L6.80851065,8.17021277 L4.08510638,8.17021277 L4.08510638,6.80851065 L6.80851065,6.80851065 L6.80851065,4.08510638 L8.17021277,4.08510638 L8.17021277,6.80851065 Z M7.48936171,13.6170213 C10.8735746,13.6170213 13.6170213,10.8735746 13.6170213,7.48936171 C13.6170213,4.10514877 10.8735746,1.36170213 7.48936171,1.36170213 C4.10514877,1.36170213 1.36170213,4.10514877 1.36170213,7.48936171 C1.36170213,10.8735746 4.10514877,13.6170213 7.48936171,13.6170213 Z M7.48936171,14.9787234 C3.3531915,14.9787234 -1.79412041e-13,11.6255319 -1.79412041e-13,7.48936171 C-1.79412041e-13,3.3531915 3.3531915,-1.81188398e-13 7.48936171,-1.81188398e-13 C11.6255319,-1.81188398e-13 14.9787234,3.3531915 14.9787234,7.48936171 C14.9787234,11.6255319 11.6255319,14.9787234 7.48936171,14.9787234 Z" id="形状"></path>
                                    </g>
                                </g>
                            </g>
                        </g>
                    </g>
                </g>
            </g>
        </g>
    </g>
</svg>