
<svg height="15" viewBox="0 0 14 15" width="14" xmlns="http://www.w3.org/2000/svg"><g fill="none" fill-rule="evenodd"><path d="m1 0h10c.5522847 0 1 .44771525 1 1v10.8285866c0 .5522848-.4477153 1-1 1-.2295458 0-.4521035-.0789714-.6303099-.2236563l-1.22877846-.9976396c-.3545216-.2878345-.85899713-.2989407-1.22584265-.0269874l-1.32698138.9837301c-.35015846.2595828-.82811879.2624541-1.18137079.0070972l-1.32930779-.9609229c-.36399219-.2631208-.85875593-.2512868-1.20975223.0289353l-1.24374258.9929569c-.43160657.3445783-1.06082874.274028-1.40540705-.1575786-.14145924-.1771868-.21850717-.3971855-.21850717-.6239142v-10.8506071c0-.55228475.44771525-1 1-1z" fill="#fff" stroke="#333" stroke-width=".5" transform="translate(1 1)"/><g fill="#333"><path d="m.18492302 2.24512297-.10691796-.90421133c-.07782335-.65815658.39262969-1.2547862 1.05078627-1.33260955.04676696-.00552993.09381889-.00830209.14091165-.00830209h1.68517569c.29195215 0 .53773212.21843011.572015.50836241l.01178252.09964547c-.01995994.12789447-.09570819.39199212-.28519422.39199212h-1.67370958c-.27614238 0-.5.22385763-.5.5s.22385762.5.5.5h1.32613766c.43012702 0 .79553202.29967231.88789147.70919151l.10994838.95332159c.07593192.65837748-.39623349 1.25365286-1.05461097 1.32958478-.04563992.00526374-.09154445.00790212-.1374869.00790212h-1.68907617c-.27972787 0-.51706916-.20052136-.56660841-.47233016l.00673493.00325874c-.00207495-.02111489-.00311429-.04231876-.00311429-.06353537 0-.35879539.29086113-.64965651.64965651-.64965651h1.32919781c.27614237 0 .5-.22385763.5-.5 0-.27614238-.22385763-.5-.5-.5h-1.58632532c-.33325384 0-.61660503-.24327341-.66703626-.57268928z" transform="translate(2.883333 4.3)"/><path d="m2.28477608 3.32849534.00073647-.00414475c.03334291-.18764714.19647844-.32435059.3870649-.32435059h.65221752c.00706298 0 .01412392.00023956.02117065.00071828.15529891.01055007.27634882.13289442.28992673.28313627-.10566426.97353544-.92849957 1.71614545-1.91328109 1.71614545-.90275197 0-1.63457704-.73182507-1.63457704-1.63457704 0-.04445257.00181334-.08888665.0054355-.1331914l.11972802-1.46446312c.08165617-.99878416.91607485-1.76776844 1.91819137-1.76776844.90275197 0 1.63457704.73182507 1.63457704 1.63457704 0 .02174062-.00043374.04347681-.00130069.06519562-.02189746.1708531-.16755729.30022734-.34137199.30022734l-.56273615.01397442c-.01970743.00048939-.03942371-.00050726-.05898132-.00298148-.19424382-.0245737-.33725441-.18722915-.34295754-.37695946l.00015368-.00149792c.00025086-.00244515.00048341-.00489214.00069764-.00734077.00148666-.01699264.00209193-.0338591.00185368-.05055425.00008558-.00070666.00017309-.00141353.00026254-.0021206-.004847-.24856757-.1965469-.4587875-.44988184-.48095144-.27628954-.0241722-.52082125.17791459-.54912672.45381132l-.20084742 1.95768312c-.00025086.00244515-.00048342.00489214-.00069764.00734077-.02370977.27100389.17676172.50991652.44776561.53362629.27628954.0241722.52082125-.17791459.54912672-.45381132z" transform="translate(7.3 4.3)"/></g></g></svg>