<svg width="4px" height="14px" viewBox="0 0 4 14" version="1.1" xmlns="http://www.w3.org/2000/svg" xmlns:xlink="http://www.w3.org/1999/xlink">
    <!-- Generator: Sketch 61 (89581) - https://sketch.com -->
    <title>更多 (1)</title>
    <desc>Created with Sketch.</desc>
    <g id="网页钱包" stroke="none" stroke-width="1" fill="none" fill-rule="evenodd">
        <g id="资产首页_闪兑入口" transform="translate(-815.000000, -589.000000)" fill="#999999" fill-rule="nonzero">
            <g id="编组-14" transform="translate(489.000000, 425.000000)">
                <g id="CARD" transform="translate(10.000000, 10.000000)">
                    <g id="更多-(1)" transform="translate(316.000000, 154.000000)">
                        <path d="M1.49956595,2.99955879 C2.04396162,3.01273811 2.55274016,2.72984129 2.82881376,2.26045534 C3.10488737,1.7910694 3.10488737,1.2089306 2.82881376,0.739544656 C2.55274016,0.270158707 2.04396162,-0.0127381073 1.49956595,0.000441206384 C0.685520655,0.020148487 0.0358689644,0.685717191 0.0358689644,1.5 C0.0358689644,2.31428281 0.685520655,2.97985151 1.49956595,2.99955879 L1.49956595,2.99955879 Z M0,6.7777588 C0,7.31365717 0.285898365,7.8088477 0.749999987,8.0767969 C1.21410161,8.3447461 1.78589839,8.3447461 2.25000001,8.0767969 C2.71410163,7.8088477 3,7.31365717 3,6.7777588 C3,5.94933167 2.32842712,5.2777588 1.5,5.2777588 C0.671572875,5.2777588 0,5.94933167 0,6.7777588 L0,6.7777588 Z M1.5,13.555158 C2.32842712,13.555158 3,12.8835852 3,12.055158 C3,11.2267309 2.32842712,10.555158 1.5,10.555158 C0.671572875,10.555158 0,11.2267309 0,12.055158 C0,12.8835852 0.671572875,13.555158 1.5,13.555158 Z" id="形状"></path>
                    </g>
                </g>
            </g>
        </g>
    </g>
</svg>