<svg width="14px" height="14px" viewBox="0 0 14 14" version="1.1" xmlns="http://www.w3.org/2000/svg" xmlns:xlink="http://www.w3.org/1999/xlink">
    <!-- Generator: Sketch 53.2 (72643) - https://sketchapp.com -->
    <title>帮助</title>
    <desc>Created with Sketch.</desc>
    <g id="网页钱包" stroke="none" stroke-width="1" fill="none" fill-rule="evenodd">
        <g id="账户" transform="translate(-579.000000, -471.000000)" fill="#999999" fill-rule="nonzero">
            <g id="编组-4" transform="translate(489.000000, 432.000000)">
                <g id="编组-2">
                    <g id="分组-6" transform="translate(36.000000, 39.000000)">
                        <g id="帮助" transform="translate(54.000000, 0.000000)">
                            <path d="M7,-2.79776202e-14 C10.8659932,-2.81996648e-14 14,3.13400675 14,7 C14,10.8659932 10.8659932,14 7,14 C3.13400675,14 -2.79776202e-14,10.8659932 -2.84217094e-14,7 C-2.88657986e-14,3.13400675 3.13400675,-2.7533531e-14 7,-2.79776202e-14 Z M7,1 C4.85640644,0.999999968 2.87564429,2.1435935 1.8038475,3.99999997 C0.732050713,5.85640645 0.732050713,8.14359355 1.8038475,10 C2.87564429,11.8564065 4.85640644,13 7,13 C10.3137085,13 12.9999999,10.3137085 12.9999999,7 C12.9999999,3.68629154 10.3137085,1.00000005 7,1 L7,1 Z M7.388,10 L7.388,11 L6.388,11 L6.388,10 L7.388,10 Z M7.018,3 C7.722,3 8.294,3.187 8.712,3.583 C9.119,3.957 9.328,4.474 9.328,5.134 C9.328,5.629 9.185,6.058 8.921,6.421 C8.811,6.553 8.503,6.839 8.019,7.268 C7.81640702,7.43439032 7.64506533,7.63553057 7.513,7.862 C7.3708928,8.10939536 7.29865435,8.39074513 7.304,8.676 L7.304,8.929 L6.414,8.929 L6.414,8.676 C6.414,8.313 6.479,7.994 6.622,7.719 C6.765,7.389 7.139,6.971 7.733,6.443 C7.909,6.267 8.03,6.135 8.107,6.047 C8.317,5.772 8.427,5.486 8.427,5.178 C8.427,4.738 8.305,4.397 8.063,4.155 C7.799,3.891 7.436,3.77 6.974,3.77 C6.435,3.77 6.028,3.946 5.754,4.309 C5.522,4.617 5.401,5.035 5.401,5.574 L4.521,5.574 C4.521,4.804 4.741,4.188 5.171,3.726 C5.62,3.242 6.236,3 7.017,3 L7.018,3 Z" id="形状"></path>
                        </g>
                    </g>
                </g>
            </g>
        </g>
    </g>
</svg>