<?xml version="1.0" encoding="utf-8"?>
<!-- Generator: Adobe Illustrator 23.0.0, SVG Export Plug-In . SVG Version: 6.00 Build 0)  -->
<svg version="1.1" id="Layer_1" xmlns="http://www.w3.org/2000/svg" xmlns:xlink="http://www.w3.org/1999/xlink" x="0px" y="0px"
	 viewBox="0 0 500 500" style="enable-background:new 0 0 500 500;" xml:space="preserve">
<style type="text/css">
	.st0{fill:#79716A;}
	.st1{font-family:'UTM-ClassizismAntiqua';}
	.st2{font-size:84.952px;}
	.st3{fill:url(#SVGID_1_);}
	.st4{fill:url(#SVGID_2_);}
	.st5{fill:url(#SVGID_3_);}
	.st6{fill:url(#SVGID_4_);}
	.st7{fill:url(#SVGID_5_);}
	.st8{fill:url(#SVGID_6_);}
	.st9{fill:url(#SVGID_7_);}
	.st10{fill:url(#SVGID_8_);}
	.st11{fill:url(#SVGID_9_);}
	.st12{fill:url(#SVGID_10_);}
	.st13{fill:url(#SVGID_11_);}
	.st14{fill:url(#SVGID_12_);}
</style>
<g>
	<path d="M251.5,492.5c-64.9,0-125.9-25.3-171.8-71.2C33.8,375.4,8.5,314.4,8.5,249.5S33.8,123.6,79.7,77.7
		C125.6,31.8,186.6,6.5,251.5,6.5s125.9,25.3,171.8,71.2c45.9,45.9,71.2,106.9,71.2,171.8s-25.3,125.9-71.2,171.8
		S316.4,492.5,251.5,492.5z"/>
	<path d="M251.5,7c32.7,0,64.5,6.4,94.4,19.1c28.9,12.2,54.8,29.7,77.1,52c22.3,22.3,39.8,48.2,52,77.1
		c12.6,29.9,19.1,61.6,19.1,94.4s-6.4,64.5-19.1,94.4c-12.2,28.9-29.7,54.8-52,77.1c-22.3,22.3-48.2,39.8-77.1,52
		C316,485.6,284.2,492,251.5,492s-64.5-6.4-94.4-19.1c-28.9-12.2-54.8-29.7-77.1-52s-39.8-48.2-52-77.1C15.4,314,9,282.2,9,249.5
		s6.4-64.5,19.1-94.4c12.2-28.9,29.7-54.8,52-77.1s48.2-39.8,77.1-52C187,13.4,218.8,7,251.5,7 M251.5,6C117,6,8,115,8,249.5
		S117,493,251.5,493S495,384,495,249.5S386,6,251.5,6L251.5,6z"/>
</g>
<g>
	<g>
		<path class="st0" d="M253.6,37.7c10.6,0,21.3,0.8,31.8,2.4c1.1,4.7,5.3,8.3,10.4,8.3c5.9,0,10.7-4.8,10.7-10.7S301.6,27,295.8,27
			c-3.7,0-7,1.9-8.9,4.8c-11-1.7-22.1-2.6-33.2-2.6c-58.1,0-112.7,22.6-153.7,63.7c-40.2,40.2-62.7,93.4-63.6,150.1
			c-3.9,1.6-6.6,5.4-6.6,9.9c0,5.9,4.8,10.7,10.7,10.7S51,258.9,51,253c0-4.3-2.6-8.1-6.3-9.7c0.9-54.5,22.5-105.7,61.2-144.3
			C145.3,59.4,197.8,37.7,253.6,37.7z"/>
		<path class="st0" d="M331.9,160.3c5.9,0,10.7-4.8,10.7-10.7s-4.8-10.7-10.7-10.7c-2,0-3.8,0.5-5.4,1.5
			c-21.3-14.6-46.9-22.6-72.9-22.6c-71.1,0-128.9,57.8-128.9,128.9c0,62.4,44.4,115.3,104.8,126.6c0.5,5.4,5.1,9.7,10.6,9.7
			c5.9,0,10.7-4.8,10.7-10.7s-4.8-10.7-10.7-10.7c-3.2,0-6,1.4-8,3.6c-57-10.2-99.1-59.9-99.1-118.6c0-66.4,54.1-120.5,120.5-120.5
			c24.2,0,48,7.4,67.9,21c-0.2,0.8-0.3,1.6-0.3,2.5C321.2,155.5,326,160.3,331.9,160.3z"/>
		<path class="st0" d="M400.5,356c-3.6,4.8-7.4,9.5-11.4,13.9l-41.5-7.2c-0.8-5.1-5.2-9.1-10.5-9.1c-5.9,0-10.7,4.8-10.7,10.7
			S331.1,375,337,375c4.3,0,8-2.6,9.7-6.3l37.3,6.5c-34,34.5-80.9,54.5-129.7,54.5c-100.3,0-181.9-81.6-181.9-181.9
			c0-25.3,5.1-49.7,15-72.5c0.1,0,0.2,0,0.3,0c5.9,0,10.7-4.8,10.7-10.7s-4.8-10.7-10.7-10.7S77,158.7,77,164.6c0,2.7,1,5.2,2.7,7.1
			c-10.5,24-15.8,49.5-15.8,76.1c0,50.8,19.8,98.6,55.7,134.6c35.9,35.9,83.7,55.7,134.6,55.7c30.7,0,59.9-7.1,87-21
			c19.7-10.1,37.6-23.8,52.7-40.1l21.5,3.7c-15.8,19-35.1,35.4-56.2,47.7c-31.9,18.6-68.4,28.4-105.6,28.4
			c-56.1,0-108.9-21.9-148.6-61.5c-11.8-11.9-22.2-25-30.8-39.1c1.7-1.9,2.7-4.4,2.7-7.1c0-5.9-4.8-10.7-10.7-10.7
			s-10.7,4.8-10.7,10.7c0,5.9,4.8,10.7,10.7,10.7c0.9,0,1.9-0.1,2.8-0.4c8.9,14.5,19.5,28,31.7,40.2c40.8,40.8,95.1,63.3,152.9,63.3
			c38.3,0,75.8-10.1,108.7-29.3c23.2-13.5,44.4-31.9,61.2-53.2l3.2-4l-27.9-4.8c2.4-2.8,4.7-5.6,6.9-8.5l43.9,7.6
			c-41.5,66.1-115,106.8-193.2,106.8c-125.8,0-228.1-102.3-228.1-228c0-125.8,102.3-228.1,228.1-228.1
			c78.2,0,151.6,40.8,193.2,106.8l-41.6,7.2c-17.1-23.3-39.5-42.7-65-56.1c-27.1-14.3-57.8-21.9-88.7-21.9c-22,0-43.6,3.7-64.2,11.1
			c-16.6,5.9-32.2,14.1-46.5,24.4c-1.6-1-3.5-1.6-5.5-1.6c-5.9,0-10.7,4.8-10.7,10.7s4.8,10.7,10.7,10.7s10.7-4.8,10.7-10.7
			c0-0.8-0.1-1.6-0.3-2.3c30.9-22.2,67.3-33.9,105.8-33.9c58.8,0,114.2,28.6,148.4,76.6l1.5,2.1l58.9-10.2l-3.1-5.2
			C439.3,94.4,410,65.3,375.2,45c-35.9-20.9-77-32-118.9-32c-63.2,0-122.5,24.6-167.2,69.3s-69.3,104-69.3,167.2
			c0,63.1,24.6,122.5,69.3,167.2c44.7,44.7,104,69.3,167.2,69.3c41.8,0,82.9-11.1,118.9-32c34.9-20.3,64.2-49.4,84.7-84.2l3.1-5.2
			l-61-10.5L400.5,356z"/>
	</g>
</g>
<text transform="matrix(1 0 0 1 145.999 286.7617)" class="st0 st1 st2">$10.000</text>
<g>
	
		<linearGradient id="SVGID_1_" gradientUnits="userSpaceOnUse" x1="270.58" y1="1187.965" x2="309.4" y2="1187.965" gradientTransform="matrix(1 0 0 1 0 -1000)">
		<stop  offset="0" style="stop-color:#FA9600"/>
		<stop  offset="0.4303" style="stop-color:#F4E10A"/>
		<stop  offset="0.4985" style="stop-color:#F4E11C"/>
		<stop  offset="0.6352" style="stop-color:#F2DF4A"/>
		<stop  offset="0.8255" style="stop-color:#F1DE94"/>
		<stop  offset="1" style="stop-color:#EFDCDE"/>
	</linearGradient>
	<polygon class="st3" points="309.4,183.5 294.6,183.5 290.2,170 290,169.5 289.8,170.1 285.4,183.5 270.6,183.5 282.4,192.4 
		277.9,206.4 290,197.7 302,206.4 297.5,192.4 	"/>
	<g>
		
			<linearGradient id="SVGID_2_" gradientUnits="userSpaceOnUse" x1="289.99" y1="1206.96" x2="289.99" y2="1168.95" gradientTransform="matrix(1 0 0 1 0 -1000)">
			<stop  offset="0" style="stop-color:#FA9600"/>
			<stop  offset="0.4303" style="stop-color:#F4E10A"/>
			<stop  offset="0.4985" style="stop-color:#F4E11C"/>
			<stop  offset="0.6352" style="stop-color:#F2DF4A"/>
			<stop  offset="0.8255" style="stop-color:#F1DE94"/>
			<stop  offset="1" style="stop-color:#EFDCDE"/>
		</linearGradient>
		<path class="st4" d="M277.6,207l4.6-14.5l-12.2-9.2h15.3l4.3-13.3l0.4-1.1l0.4,1l4.3,13.3H310l-12.2,9.2l4.6,14.5l-12.4-9
			L277.6,207z M290,197.5l11.7,8.4l-4.4-13.6l11.5-8.6h-14.4l-4.4-13.6l0,0l-4.4,13.6h-14.4l11.5,8.6l-4.4,13.6L290,197.5z"/>
	</g>
</g>
<g>
	
		<linearGradient id="SVGID_3_" gradientUnits="userSpaceOnUse" x1="228.58" y1="1187.965" x2="267.4" y2="1187.965" gradientTransform="matrix(1 0 0 1 0 -1000)">
		<stop  offset="0" style="stop-color:#FA9600"/>
		<stop  offset="0.4303" style="stop-color:#F4E10A"/>
		<stop  offset="0.4985" style="stop-color:#F4E11C"/>
		<stop  offset="0.6352" style="stop-color:#F2DF4A"/>
		<stop  offset="0.8255" style="stop-color:#F1DE94"/>
		<stop  offset="1" style="stop-color:#EFDCDE"/>
	</linearGradient>
	<polygon class="st5" points="267.4,183.5 252.6,183.5 248.2,170 248,169.5 247.8,170.1 243.4,183.5 228.6,183.5 240.4,192.4 
		235.9,206.4 248,197.7 260,206.4 255.5,192.4 	"/>
	<g>
		
			<linearGradient id="SVGID_4_" gradientUnits="userSpaceOnUse" x1="247.99" y1="1206.96" x2="247.99" y2="1168.95" gradientTransform="matrix(1 0 0 1 0 -1000)">
			<stop  offset="0" style="stop-color:#FA9600"/>
			<stop  offset="0.4303" style="stop-color:#F4E10A"/>
			<stop  offset="0.4985" style="stop-color:#F4E11C"/>
			<stop  offset="0.6352" style="stop-color:#F2DF4A"/>
			<stop  offset="0.8255" style="stop-color:#F1DE94"/>
			<stop  offset="1" style="stop-color:#EFDCDE"/>
		</linearGradient>
		<path class="st6" d="M235.6,207l4.6-14.5l-12.2-9.2h15.3l4.3-13.3l0.4-1.1l0.4,1l4.3,13.3H268l-12.2,9.2l4.6,14.5l-12.4-9
			L235.6,207z M248,197.5l11.7,8.4l-4.4-13.6l11.5-8.6h-14.4l-4.4-13.6l0,0l-4.4,13.6h-14.4l11.5,8.6l-4.4,13.6L248,197.5z"/>
	</g>
</g>
<g>
	
		<linearGradient id="SVGID_5_" gradientUnits="userSpaceOnUse" x1="186.58" y1="1187.965" x2="225.4" y2="1187.965" gradientTransform="matrix(1 0 0 1 0 -1000)">
		<stop  offset="0" style="stop-color:#FA9600"/>
		<stop  offset="0.4303" style="stop-color:#F4E10A"/>
		<stop  offset="0.4985" style="stop-color:#F4E11C"/>
		<stop  offset="0.6352" style="stop-color:#F2DF4A"/>
		<stop  offset="0.8255" style="stop-color:#F1DE94"/>
		<stop  offset="1" style="stop-color:#EFDCDE"/>
	</linearGradient>
	<polygon class="st7" points="225.4,183.5 210.6,183.5 206.2,170 206,169.5 205.8,170.1 201.4,183.5 186.6,183.5 198.4,192.4 
		193.9,206.4 206,197.7 218,206.4 213.5,192.4 	"/>
	<g>
		
			<linearGradient id="SVGID_6_" gradientUnits="userSpaceOnUse" x1="205.99" y1="1206.96" x2="205.99" y2="1168.95" gradientTransform="matrix(1 0 0 1 0 -1000)">
			<stop  offset="0" style="stop-color:#FA9600"/>
			<stop  offset="0.4303" style="stop-color:#F4E10A"/>
			<stop  offset="0.4985" style="stop-color:#F4E11C"/>
			<stop  offset="0.6352" style="stop-color:#F2DF4A"/>
			<stop  offset="0.8255" style="stop-color:#F1DE94"/>
			<stop  offset="1" style="stop-color:#EFDCDE"/>
		</linearGradient>
		<path class="st8" d="M193.6,207l4.6-14.5l-12.2-9.2h15.3l4.3-13.3l0.4-1.1l0.4,1l4.3,13.3H226l-12.2,9.2l4.6,14.5l-12.4-9
			L193.6,207z M206,197.5l11.7,8.4l-4.4-13.6l11.5-8.6h-14.4l-4.4-13.6l0,0l-4.4,13.6h-14.4l11.5,8.6l-4.4,13.6L206,197.5z"/>
	</g>
</g>
<g>
	
		<linearGradient id="SVGID_7_" gradientUnits="userSpaceOnUse" x1="310.58" y1="1187.965" x2="349.4" y2="1187.965" gradientTransform="matrix(1 0 0 1 0 -1000)">
		<stop  offset="0" style="stop-color:#FA9600"/>
		<stop  offset="0.4303" style="stop-color:#F4E10A"/>
		<stop  offset="0.4985" style="stop-color:#F4E11C"/>
		<stop  offset="0.6352" style="stop-color:#F2DF4A"/>
		<stop  offset="0.8255" style="stop-color:#F1DE94"/>
		<stop  offset="1" style="stop-color:#EFDCDE"/>
	</linearGradient>
	<polygon class="st9" points="349.4,183.5 334.6,183.5 330.2,170 330,169.5 329.8,170.1 325.4,183.5 310.6,183.5 322.4,192.4 
		317.9,206.4 330,197.7 342,206.4 337.5,192.4 	"/>
	<g>
		
			<linearGradient id="SVGID_8_" gradientUnits="userSpaceOnUse" x1="329.99" y1="1206.96" x2="329.99" y2="1168.95" gradientTransform="matrix(1 0 0 1 0 -1000)">
			<stop  offset="0" style="stop-color:#FA9600"/>
			<stop  offset="0.4303" style="stop-color:#F4E10A"/>
			<stop  offset="0.4985" style="stop-color:#F4E11C"/>
			<stop  offset="0.6352" style="stop-color:#F2DF4A"/>
			<stop  offset="0.8255" style="stop-color:#F1DE94"/>
			<stop  offset="1" style="stop-color:#EFDCDE"/>
		</linearGradient>
		<path class="st10" d="M317.6,207l4.6-14.5l-12.2-9.2h15.3l4.3-13.3l0.4-1.1l0.4,1l4.3,13.3H350l-12.2,9.2l4.6,14.5l-12.4-9
			L317.6,207z M330,197.5l11.7,8.4l-4.4-13.6l11.5-8.6h-14.4l-4.4-13.6l0,0l-4.4,13.6h-14.4l11.5,8.6l-4.4,13.6L330,197.5z"/>
	</g>
</g>
<g>
	
		<linearGradient id="SVGID_9_" gradientUnits="userSpaceOnUse" x1="353.58" y1="1188.965" x2="392.4" y2="1188.965" gradientTransform="matrix(1 0 0 1 0 -1000)">
		<stop  offset="0" style="stop-color:#FA9600"/>
		<stop  offset="0.4303" style="stop-color:#F4E10A"/>
		<stop  offset="0.4985" style="stop-color:#F4E11C"/>
		<stop  offset="0.6352" style="stop-color:#F2DF4A"/>
		<stop  offset="0.8255" style="stop-color:#F1DE94"/>
		<stop  offset="1" style="stop-color:#EFDCDE"/>
	</linearGradient>
	<polygon class="st11" points="392.4,184.5 377.6,184.5 373.2,171 373,170.5 372.8,171.1 368.4,184.5 353.6,184.5 365.4,193.4 
		360.9,207.4 373,198.7 385,207.4 380.5,193.4 	"/>
	<g>
		
			<linearGradient id="SVGID_10_" gradientUnits="userSpaceOnUse" x1="372.99" y1="1207.96" x2="372.99" y2="1169.95" gradientTransform="matrix(1 0 0 1 0 -1000)">
			<stop  offset="0" style="stop-color:#FA9600"/>
			<stop  offset="0.4303" style="stop-color:#F4E10A"/>
			<stop  offset="0.4985" style="stop-color:#F4E11C"/>
			<stop  offset="0.6352" style="stop-color:#F2DF4A"/>
			<stop  offset="0.8255" style="stop-color:#F1DE94"/>
			<stop  offset="1" style="stop-color:#EFDCDE"/>
		</linearGradient>
		<path class="st12" d="M360.6,208l4.6-14.5l-12.2-9.2h15.3l4.3-13.3l0.4-1.1l0.4,1l4.3,13.3H393l-12.2,9.2l4.6,14.5l-12.4-9
			L360.6,208z M373,198.5l11.7,8.4l-4.4-13.6l11.5-8.6h-14.4l-4.4-13.6l0,0l-4.4,13.6h-14.4l11.5,8.6l-4.4,13.6L373,198.5z"/>
	</g>
</g>
<g>
	
		<linearGradient id="SVGID_11_" gradientUnits="userSpaceOnUse" x1="392.58" y1="1188.965" x2="431.4" y2="1188.965" gradientTransform="matrix(1 0 0 1 0 -1000)">
		<stop  offset="0" style="stop-color:#FA9600"/>
		<stop  offset="0.4303" style="stop-color:#F4E10A"/>
		<stop  offset="0.4985" style="stop-color:#F4E11C"/>
		<stop  offset="0.6352" style="stop-color:#F2DF4A"/>
		<stop  offset="0.8255" style="stop-color:#F1DE94"/>
		<stop  offset="1" style="stop-color:#EFDCDE"/>
	</linearGradient>
	<polygon class="st13" points="431.4,184.5 416.6,184.5 412.2,171 412,170.5 411.8,171.1 407.4,184.5 392.6,184.5 404.4,193.4 
		399.9,207.4 412,198.7 424,207.4 419.5,193.4 	"/>
	<g>
		
			<linearGradient id="SVGID_12_" gradientUnits="userSpaceOnUse" x1="411.99" y1="1207.96" x2="411.99" y2="1169.95" gradientTransform="matrix(1 0 0 1 0 -1000)">
			<stop  offset="0" style="stop-color:#FA9600"/>
			<stop  offset="0.4303" style="stop-color:#F4E10A"/>
			<stop  offset="0.4985" style="stop-color:#F4E11C"/>
			<stop  offset="0.6352" style="stop-color:#F2DF4A"/>
			<stop  offset="0.8255" style="stop-color:#F1DE94"/>
			<stop  offset="1" style="stop-color:#EFDCDE"/>
		</linearGradient>
		<path class="st14" d="M399.6,208l4.6-14.5l-12.2-9.2h15.3l4.3-13.3l0.4-1.1l0.4,1l4.3,13.3H432l-12.2,9.2l4.6,14.5l-12.4-9
			L399.6,208z M412,198.5l11.7,8.4l-4.4-13.6l11.5-8.6h-14.4l-4.4-13.6l0,0l-4.4,13.6h-14.4l11.5,8.6l-4.4,13.6L412,198.5z"/>
	</g>
</g>
</svg>
