<svg id="Layer_1" data-name="Layer 1" xmlns="http://www.w3.org/2000/svg" viewBox="0 0 1920 1280"><defs><style>.cls-1{fill:#45bf55;}.cls-2{fill:#168039;}</style></defs><path class="cls-1" d="M1920,129.75V602.49c0,38.31-72.92,6.7-88.77.11-46.75-19.44-86.17-46.2-122-82.4-12-12.11-24.16-25.19-28.46-41.65-3.18-12.16-1.72-25-.1-37.41q5-38.5,11.87-76.74c8.32-46.32,19.38-93.83,47.54-131.54,30.34-40.62,76.44-64.25,122.88-81.69C1880.78,144.49,1900.13,136.79,1920,129.75Z"/><path class="cls-2" d="M1920,1124.1V1280H1223.71a1612.92,1612.92,0,0,1,14.72-208.59c3.71-27.54,8.62-56.17,25.08-78.57,24.86-33.81,71-45.64,112.87-42s81.31,19.92,121.48,32.13c57.08,17.41,116.55,26.72,172.87,46.51,76.75,26.93,146.82,72.91,226.31,90.17C1904.59,1121.25,1912.29,1122.66,1920,1124.1Z"/><path class="cls-1" d="M470.91,1280H0V855.73c80,.69,160.26,4.71,236.72,27.24,92.39,27.21,180.18,85.71,219.8,173.47C487.81,1125.71,486,1204.79,470.91,1280Z"/><path class="cls-2" d="M996.88,145.54c-8.86,18.91-19.15,37.58-34.13,52.12-14.64,14.21-33,23.81-51.56,32.38A689.6,689.6,0,0,1,764,278.94c-47.84,10.11-101.58,14-141.92-13.62-20.84-14.29-35.92-35.66-56.37-50.48-60.62-44-148.82-19.54-216.07-52.54C301,138.42,271.27,88.45,247.46,39.73,241.14,26.78,235,13.54,229.77,0h778.4C1031.8,43,1018.36,99.84,996.88,145.54Z"/></svg>