<?xml version="1.0" encoding="utf-8"?>
<!-- Generator: Adobe Illustrator 24.2.3, SVG Export Plug-In . SVG Version: 6.00 Build 0)  -->
<svg version="1.1" id="Layer_1" xmlns="http://www.w3.org/2000/svg" xmlns:xlink="http://www.w3.org/1999/xlink" x="0px" y="0px"
	 viewBox="0 0 512 512" style="enable-background:new 0 0 512 512;" xml:space="preserve">
<style type="text/css">
	.st0{fill:#FFFFFF;}
</style>
<g id="Solid">
	<path class="st0" d="M88,48v272c0,44.2,35.8,80,80,80h174.1l-47,47l0,0c-9.4,9.4-9.4,24.6,0,33.9s24.6,9.4,33.9,0l88-88l0,0
		c9.4-9.4,9.4-24.6,0-33.9l-88-88c-9.4-9.4-24.6-9.4-33.9,0s-9.4,24.6,0,33.9l47,47H168c-17.7,0-32-14.3-32-32V48
		c0-13.3-10.7-24-24-24S88,34.7,88,48z"/>
</g>
</svg>
