<svg id="Layer_1" data-name="Layer 1" xmlns="http://www.w3.org/2000/svg" xmlns:xlink="http://www.w3.org/1999/xlink" viewBox="0 0 2565.29 1665.85"><defs><style>.cls-1,.cls-18,.cls-9{fill:#281616;}.cls-1,.cls-2{clip-rule:evenodd;}.cls-16,.cls-2{fill:none;}.cls-3{clip-path:url(#clip-path);}.cls-4{fill:#999;}.cls-10,.cls-11,.cls-12,.cls-13,.cls-14,.cls-15,.cls-19,.cls-20,.cls-21,.cls-22,.cls-23,.cls-24,.cls-27,.cls-28,.cls-29,.cls-32,.cls-35,.cls-36,.cls-37,.cls-38,.cls-4,.cls-40,.cls-41,.cls-6,.cls-7,.cls-8,.cls-9{fill-rule:evenodd;}.cls-16,.cls-35,.cls-36,.cls-4,.cls-5{opacity:0.5;}.cls-6{fill:#e5ac8e;}.cls-7{fill:#fff;}.cls-8{fill:#3b47bc;}.cls-10{fill:#faa098;}.cls-11{fill:#d49682;}.cls-12{fill:#c26b29;}.cls-13{fill:#f2e6e6;}.cls-14,.cls-36{fill:#e5371b;}.cls-15{fill:#f28c83;}.cls-16{stroke:#fff;stroke-miterlimit:2.61;stroke-width:2.83px;}.cls-17{clip-path:url(#clip-path-3);}.cls-19{fill:#f7b290;}.cls-20{fill:#f7bcaa;}.cls-21{fill:#3a438c;}.cls-22{fill:#343c7d;}.cls-23{fill:#3f4a99;}.cls-24{fill:#fdce3d;}.cls-25{clip-path:url(#clip-path-4);}.cls-26{fill:url(#linear-gradient);}.cls-27{fill:#345f82;}.cls-28{fill:#61b2c6;}.cls-29{fill:#e6a586;}.cls-30{clip-path:url(#clip-path-5);}.cls-31{fill:url(#linear-gradient-2);}.cls-32{fill:#bd8a6f;}.cls-33{clip-path:url(#clip-path-6);}.cls-34{fill:url(#linear-gradient-3);}.cls-35{fill:#d8d8d8;}.cls-37{fill:#ffa281;}.cls-38{fill:#d12715;}.cls-39{fill:#059170;}.cls-40{fill:#f29d7e;}.cls-41{fill:#f2b741;}.cls-42{clip-path:url(#clip-path-8);}.cls-43{fill:url(#linear-gradient-4);}</style><clipPath id="clip-path"/><clipPath id="clip-path-3"><path class="cls-1" d="M630.7,1298c6.21-6.12,18.95-36.54-6.6-56-20.15-15.32-45.26-13.61-58.5-8.69-23.82,8.84-23.08,31.75-36.52,36.84-11.38,4.32-42.71-8.4-70.13,11-19.61,13.85-9,43.74-20.16,53.19-5.66,4.8-67.36,26.4-38.29,79.92,15.18,27.94,51.18,30.21,70.65,24.91s27.81-25.43,44.64-38.36c10.8-8.29,26.25-6.46,33.58-12.87,14.5-12.68,10.44-34.93,32.67-39.42l16.47-41.22Z"/></clipPath><clipPath id="clip-path-4"><path class="cls-2" d="M603.86,1347.63l2.39-21.29a24,24,0,0,0,7.16-1.57c-14,4.76-32.7-6.09-42.55-12l-3.36,30s9.78,11.07,20.29,12.24,16.07-7.31,16.07-7.31"/></clipPath><linearGradient id="linear-gradient" x1="588.3" y1="1353.7" x2="592.45" y2="1316.65" gradientUnits="userSpaceOnUse"><stop offset="0" stop-color="#e09a77"/><stop offset="0.72" stop-color="#f0aa88"/><stop offset="1" stop-color="#f7b290"/></linearGradient><clipPath id="clip-path-5"><path class="cls-2" d="M2263.31,992.44l-.56-.08,2.23.08c10.66-1,15.92-2.7,28.05-13.72l5.24,8v15c-2.05,12.14-17.53,18.26-23.36,18s-10.51-5.35-11.6-8.42V992.44Z"/></clipPath><linearGradient id="linear-gradient-2" x1="2280.51" y1="1008.39" x2="2280.51" y2="980.75" gradientUnits="userSpaceOnUse"><stop offset="0" stop-color="#d49f82"/><stop offset="1" stop-color="#e5ac8e"/></linearGradient><clipPath id="clip-path-6"><path class="cls-2" d="M2256.44,987.53c-10.85-9.77-.6-39.1,3.27-47.6,10.76,10.27,24.16,10.89,29.82,11.73L2286.6,962l7,2.78a144.26,144.26,0,0,1-5.26,16.32c5.67-2.42,9.66-15.7,14.75-10.24,4.58,4.9-2.52,12-9.52,14.29l.91,3.31c-11.73,5.39-27.48,8.58-38-.92"/></clipPath><linearGradient id="linear-gradient-3" x1="2263.73" y1="1009.04" x2="2271.85" y2="983.5" xlink:href="#linear-gradient-2"/><clipPath id="clip-path-8"><path class="cls-2" d="M1832.46,947.72s-21.12-6.43-28.53-13.17l-5,7.73v16.45c2,11.65,16.82,17.53,22.42,17.26s10.09-5.13,11.14-8.08Z"/></clipPath><linearGradient id="linear-gradient-4" x1="1815.68" y1="964.51" x2="1815.68" y2="936.6" xlink:href="#linear-gradient-2"/></defs><g class="cls-3"><g class="cls-3"><path class="cls-4" d="M2033.32,1653.85c5-168.58-148.9-155-162-195-33.62-102.87,43.17-222.39,9.63-289.65-53.64-107.55-278.91-92.26-375-135.6-55.31-25-26.56-140.38-149.56-181.37-164.68-54.87-201.3,89.4-352.33,127.25-160.8,40.3-225.86-44.16-322.21,36.58-85.14,71.34-4,200.86-19,317.79-10.61,82.68-219.39,101.12-163.66,320Z"/></g></g><g class="cls-5"><path class="cls-6" d="M183.52,1555.74l-4.4,35c-.3,5.17-.18,19.4.07,37.34,7.92,6.81,20.54,4.95,22.15-.61s6.44-62.5,6.44-62.5Z"/><path class="cls-7" d="M209.13,1641.93c-4.8.5-22.81,1.44-24.59,1.59s-5.34,2.6-6.45,2.68c-5.65.37-13.32-2.17-15.26-2.61s-31.84-.86-32.05-1.45.12-4.27,2.88-5.49c1.39-.61,7.43-2.64,14.56-5.4s14.54-6,18-7.73c2.16-1.09,3.39-2.57,5.23-3.62h0c1.4-.94,8-7,8.95-6.86s7.47,4.36,7.47,5.4c0,.61-1.09,2.53-2,4h0a8.14,8.14,0,0,0,5.05.42c5.54-1.48,6-7.88,9.13-8.12s9,7.08,9.06,27.2"/><path class="cls-6" d="M307.08,1555.94l-7.83,25.56c-.3,5.18,3.25,28.89,3.5,46.83,7.92,6.81,20.54,5,22.15-.62s3-61,3-61Z"/><path class="cls-8" d="M209,1641.94l.14.14c.31.81,1.35,4.22,1.05,5s-12.54,3.65-34.89,3-41.07-1.34-44.49-7.93h0c.92.58,30.1,1,32,1.43s9.61,3,15.26,2.61c1.11-.08,4.67-2.53,6.45-2.68s19.46-1.07,24.45-1.58"/><path class="cls-7" d="M282.7,1650.09h48.58c.7-3.19.14-14.4-1.23-18.45-1.71-5.06-3.65-9.39-5.89-9.45-4.56-.13-1.89,8.27-8.46,7.87s-4.25-5.75-13-6c-1.56,0-10.4,7.8-16.68,15.21-2.32,2.74-3.48,5.74-3.31,10.84"/><path class="cls-8" d="M282.7,1650.09h48.58a31.1,31.1,0,0,0,.28-6.16l-48-.45a39.77,39.77,0,0,0-.82,6.61"/><path class="cls-8" d="M298.24,1600.29c-5.25-110.45-19.09-221.39-24.08-336.24-5.64,32.26-15.36,75.62-24,114.29-7.49,33.62-14.14,63.7-16.54,79.88-4.46,30.21-2.89,63.33-4.39,70.39-1.13,5.31-6,9.69-7.53,17.37-1,5,3.2,13.86,3.16,20.6,0,4.08-6.49.93-6.39,5.19.36,15.07,2.54,23.28,1,24.66-1.21,1.12-4.59.3-7.69.18-17.59-.7-14.4-.3-33.44,5.23,1.57-205.31-2-192.85,30.62-391.95,13.57-9,26.29-5,44.43-4.42s33.51-20.19,65.27-11.37c16.65,4.62,26.8,14,33.54,20.07,5.67,65.26-9,180.83-9.86,224.29s6.38,74.67,5.35,80.11-4.7,8.24-5.77,12c-3.21,12.66,3.4,28.19,2.44,36.54s-6.33,18.6-8.68,21.1,2.5,7.07-1.71,9.56-21.37,6.45-35.79,2.56"/><path class="cls-8" d="M234.64,946.29c5.42,54.15-5.07,87.24-14.27,112.65,25.31-6.25,32.66-13.41,39-43.5l9.55-7.79-4.05-27.52-8.36-17.53-10.12-10.12-3.37-12Z"/><path class="cls-9" d="M266.54,925.37l0-.21,0,.12ZM335.64,975c-5.61-13.25-14.7-12.17-20.4-22.27-7.34-13,.59-28.45-11.29-43.65-4.47-5.72-16-13.13-27.77-13.86-39.16-2.41-63.42,32.15-36.33,65.17a81.58,81.58,0,0,1-.67-11.42c4.92-3.19,15.5-7.27,22.13-14.4.06.81.15,1.89.3,3.3-2.29,3.59-4.76,7.4-6,11.39,1.23-3,3.59-5.9,6.24-9,1,8.42,3.63,25.2,10.14,58,11.62,58.61,49.13,65.67,67.18,54.77,30.26-18.3,1.2-36.87-.7-43.24C335.28,999,340.37,986.1,335.64,975Z"/><path class="cls-10" d="M356.1,1178.89c-5.22,15.25-9.79,29.08-16.83,43.6-7.18,3.11-18.74,6.3-19.95,9.89-.64,1.91,11.68-.59,10.83,1.84-2.42,6.9-21.57,22-18.77,25,3.63,4,22.11.94,29.55-5,5.31-4.24,10.33-15.36,11.24-24,8.31-14.55,17.07-28.48,24.54-43.55Z"/><path class="cls-7" d="M339,1213c26.65-42.73,33.88-108,.68-149.78-1.59-2-9.35-9.65-10.42-12.16-8.86-20.83,5.58-50.75,8.29-51.65,19.73,9.32,47.61,42.14,58.46,88.31,6.35,27-.1,100.62-36,143.07Z"/><path class="cls-11" d="M149.54,994.72c-.22-9.75,2.61-31.58,6.05-34.91l13.73,3c-.07,5.92-.93,23.83.88,33.93.16,6.49,2.22,19.29,5.58,33.1-4.41,1-16.46,1.41-26.66,1.25-.31-15,.09-28.35.42-36.32"/><path class="cls-12" d="M172.22,942.31c1.59,6.57-4.58,31.76-17.19,42.09l13.76,10.27c6.48-4.35,21.13-25,18.93-46.92Z"/><path class="cls-10" d="M164.86,980.36c5.33,1.9,20.9,4.12,23.91-1.93s-2.59-15.86-9.84-19.71-20.69-7.65-24.59,4.41c-3.38,10.47,8.12,16.19,10.52,17.23"/><path class="cls-13" d="M183.32,1058.44c17.76-43.55,37.62-60.15,45.62-63.8-2,12.46-3.18,67.39-4.35,78.67-3.19,4.57-12.57,18.42-16.4,22.94-11.59-10.19-19.47-23.63-24.87-37.81"/><path class="cls-7" d="M172.43,1003.46c0,10.58,7.52,43.06,10.62,51.71,5.65,15.74,13.72,31.17,25.14,41.08-8.63,10.15-18.45,18.61-27.54,18.3-41.35-1.44-36.06-96.33-36.09-121.63,8.25,5.75,16.25,8.31,27.87,10.54"/><path class="cls-14" d="M226.53,941.53c2.25,13.53.09,19.62-10.55,26.25-31.42-12.63-85.75-28.35-119.74-17.07-2.08,1.55-3.91,2.13-5.35,1.55-6-2.41-3-24,6.75-48.14s22.46-41.81,28.45-39.4c1.44.58,2.36,2.26,2.79,4.82,16.72,31.67,66.23,59.36,97.65,72"/><path class="cls-7" d="M228.62,994.79c-40.78,53.21,5.91,75.78,3,137.36-1.19,25.24-17,50.15-25,91.27,8.48,1.33,138.76,4.7,146.38,1.07-9.41-38.62-27.59-71.93-27.34-102.36.38-44,7.25-61,18-119.11-33.84-21.41-78.79-24.81-115.1-8.23"/><path class="cls-10" d="M261.31,1017.45c5.47-2,22.95-16.1,26.54-24.2-.47-5.35-.28-19.67-.48-22.56,15.36-10.77,16.32-20.44,11.5-24.64-6.22-3.23-13.66,9.44-12.93,13.89-5.7-10.2,6.76-26.28-12.19-37.33-2.58,10.27-14.7,18.44-18.09,26.6,2.72-9.08,12-17.21,10.93-24.05-3.22,13.31-20.65,19.38-27.41,23.76a81.36,81.36,0,0,0,.67,11.41c.75,5.61,2.25,11.31,5,15.77.68,2.08,4.64,6.46,9.49,7.71,5.3,9,.47,30.39,6.95,33.64"/><path class="cls-15" d="M254.36,983.81c1.62,2.75,2.3,6.67,2.63,10.87h0c18.88-4.68,26-19.12,26-23.26-1.6,5.35-12.15,13.7-24.48,13.15a18,18,0,0,1-4.17-.76m-9.49-7.71,0,.1c.77,2.12,4.68,6.38,9.45,7.61A17.17,17.17,0,0,1,244.87,976.1Z"/></g><line class="cls-16" y1="1650.19" x2="2389.88" y2="1650.19"/><g class="cls-5"><path class="cls-9" d="M630.7,1298c6.21-6.12,18.95-36.54-6.6-56-20.15-15.32-45.26-13.61-58.5-8.69-23.82,8.84-23.08,31.75-36.52,36.84-11.38,4.32-42.71-8.4-70.13,11-19.61,13.85-9,43.74-20.16,53.19-5.66,4.8-67.36,26.4-38.29,79.92,15.18,27.94,51.18,30.21,70.65,24.91s27.81-25.43,44.64-38.36c10.8-8.29,26.25-6.46,33.58-12.87,14.5-12.68,10.44-34.93,32.67-39.42l16.47-41.22Z"/><g class="cls-17"><rect class="cls-18" x="371.43" y="1226.72" width="278.22" height="217.76"/></g><path class="cls-7" d="M605.86,1331c-.14,4.34-5,18-10.57,18.68s-25.19-15.53-26-18.33c0-.33,0-.69,0-1.08-8.14,1.9-37.62,10.76-53.58,17.06,8.72,90.34,30.55,136-6.89,231.24,25.17,6.12,133.29,28.76,152.06,14.68-46.7-134.86,2-184.87-11-251.92-9.71-8.78-34.69-10.84-44.2-12.25Z"/><path class="cls-19" d="M739.36,1443.16c-6.13,6.13-30.69,35.65-67.21,3s7-55.66,7-55.66l25.66,30.79,15.48-8.71Z"/><path class="cls-7" d="M649.89,1341.33c9.1,8.4,40.53,47.06,47.94,60.64-8,9.65-34.53,32.44-39.14,35.66-10.78-10.5-24-29.76-29.13-39.56Z"/><path class="cls-19" d="M841.88,1337.26c-13.81,29.42-68.94,73.53-96.49,100.46-36.66,35.85-45.68-3.09-39.86-10.3A147.63,147.63,0,0,1,722,1410.54c43.64-36.46,109.23-74.42,111.59-80.51-5.79-21.21,6.29-26,5.63-10.48,3.07-11.23,17.14-17.55,22.47-15.48,4.14,1.61,4.61,10.32-19.82,33.19"/><path class="cls-19" d="M678.65,1523.55c-8.66-2.71-115.74-34.44-130.69-40.1-3.22-4.34-4.8-33.37-6.42-44.38-12.14,1.31-33.87,3-44,2.47,2.71,19.82,13,65.88,20.76,73,28.07,25.67,121.35,20.84,159.61,24.57,5.11,3.77,30.52,18.69,48-3.71,6.86-10.72-28.23-16.27-36.32-10.53,7.86-7.31,8.16-13.61,5.46-16.28-2.44-1.55-8.09,2.57-16.46,15"/><path class="cls-20" d="M521.31,1642.79c-5.11.39-16.27,7.71-21.59,13.58s-22.89-26.31-22.89-26.31l1.64-2.9c4.85-4.6,27.19-12.27,33.8-14.77Z"/><path class="cls-21" d="M465.7,1619.24c-.34,1.51,2.29,14.1,6.46,23s13.58,22,16.58,23.48,15.13-10.24,15.87-11.74-8-31-13.23-34.9-25.3-2.53-25.68.16"/><path class="cls-9" d="M775.08,1577.11c-82.55,62.54-101.71,67.19-153.56,68.61s-116.17-29.91-166.77-64l14.75-21.5,75.77-7.11,89,26.52,81.45-6.16Z"/><path class="cls-9" d="M504.59,1610.86l18.3,40.17c31.48-5.68,101-16.15,176-38,25.73-7.51,117.24-39.86,90.84-82.12-18.34-29.34-109-4.92-285.18,80"/><path class="cls-6" d="M694.19,1610.86l27.1-.47c5.13,1.15,27.24,11.25,44.65,16.52,4.42,9.62-.93,21.4-6.8,21.41s-60.22-14.18-60.22-14.18Z"/><path class="cls-22" d="M792.76,1613.46c-5.09,17.74-13.6,47.34-13.6,47.34-3.31-.22-14.07-3.9-17.64-6.37-4.45-3.07-8.12-6.18-7.56-8.39,1.15-4.47,8.58.48,10-6s-4.41-5.75-2.23-14.36c.39-1.54,10.51-8,19.49-12,3.33-1.5,6.57-1.79,11.5-.2"/><path class="cls-22" d="M792.76,1613.46c-5.09,17.74-13.6,47.34-13.6,47.34a32.12,32.12,0,0,1-6.08-1.45l15-46.9a21.14,21.14,0,0,1,4.66,1"/><path class="cls-23" d="M749.23,1618.1l-17.86,36c-31.06-5.07-142.49-21.6-213.36-41.28-27.65-7.69-116.06-49-88.74-88.52,19.68-28.46,142.37,11.92,320,93.85"/><path class="cls-24" d="M545.22,1536.49h52.93v9.18H540.63v-4.59a4.6,4.6,0,0,1,4.59-4.59"/><polygon class="cls-24" points="591.11 1545.67 627.53 1441.5 793.21 1441.5 757.55 1545.67 591.11 1545.67"/><path class="cls-19" d="M606.25,1326.34a24.13,24.13,0,0,0,7.17-1.57c10.49-4.28,15.49-14.46,17.57-27.07a95.72,95.72,0,0,0,1.1-10.63c-5-9.44-23.3-23.18-34.51-28.18-1.33,10.31-6.19,28.08-23.52,36.43-.31-4.22-6.86-8-11.62-5.58s-9.2,14.16,13,26.54l-3.13,27.94a22.44,22.44,0,0,0,15.66,9.43c10.51,1.18,16.08-7.31,16.08-7.31Z"/><g class="cls-25"><rect class="cls-26" x="567.5" y="1312.74" width="45.91" height="43.38"/></g><path class="cls-7" d="M493.06,1375.28c-5.23,20,1.1,65.25,5.73,80l1,.06c13.32.73,38.41-.85,51.86-3.51-.06-11.21.64-30.93-2.61-48.39-1.08-5.1-6.32-56.17-23.49-57.8-12.36-1.17-27.23,9.66-32.47,29.63"/><path class="cls-7" d="M700.69,1478.33a13.77,13.77,0,1,0,13.77,13.77,13.77,13.77,0,0,0-13.77-13.77"/></g><g class="cls-5"><path class="cls-6" d="M2186.68,1558.85l-4.34,34.53c-.3,5.1-.17,19.12.07,36.8,7.8,6.71,20.24,4.88,21.83-.61s6.34-61.58,6.34-61.58Z"/><path class="cls-27" d="M2211.91,1643.77c-4.73.5-22.48,1.43-24.23,1.57s-5.26,2.57-6.35,2.64c-5.57.37-13.13-2.13-15-2.57s-31.37-.85-31.58-1.43.12-4.21,2.83-5.41c1.37-.6,7.33-2.6,14.36-5.32s14.32-5.91,17.72-7.62c2.11-1.06,3.34-2.52,5.15-3.56h0c1.39-.93,7.89-6.91,8.82-6.76s7.36,4.29,7.36,5.31c0,.61-1.07,2.5-1.94,3.94h0a8.07,8.07,0,0,0,5,.42c5.46-1.46,5.93-7.77,9-8s8.91,7,8.92,26.8"/><path class="cls-28" d="M2211.78,1643.79l.13.13c.31.8,1.33,4.16,1,4.89s-12.36,3.59-34.38,3-40.47-1.33-43.84-7.82h0c.91.57,29.66,1,31.55,1.41s9.47,2.94,15,2.57c1.09-.07,4.6-2.49,6.35-2.64s19.18-1,24.1-1.55"/><path class="cls-9" d="M2223.06,1446c.45,33.41,13.81,68.83,13.07,72.26-1.13,5.24-7.14,1-9.17,12.94-1.2,7.06,3.32,17.84,3.28,24.48,0,4-6.4.91-6.3,5.11.36,14.86,1.33,34.33-.14,35.69-1.2,1.1-4.69-.8-7.58.17s-2.62,3.2-5.9,3.59c-5.66.66-13.43-3.85-31.51,1.41-7-70.4-17.7-140.83-10.21-211.55,6.41-60.51,21.91-116.58,31.59-175.74,13.36-8.87,24.7-1.18,42.58-.62,3.7.12,24.77-.67,28.4-1.91,20.58,70.59-23.18,120.2-36.84,169-4.41,15.76-11.71,32.45-11.27,65.17"/><path class="cls-13" d="M2256.47,1060.55c-9.24.34-63.36-18.65-95.3-35.7-8.09-12.88,2-27.67,13.19-34.18,19.32,9.13,61.46,3.46,90.59,7.2,23.57,13.53,2.32,52-8.48,62.68"/><path class="cls-29" d="M2142,872.22c.68,7,6,38,9.55,58.14-7-.44-17.29-1.87-26.13-3.09,0-20.25.15-44.21,1.42-55.73l15.52.43a2,2,0,0,1-.36.25"/><path class="cls-29" d="M2134.43,876.53c-14.68-2.79-11.89-13.69-19.7-22.29-2.34-2.33-11.48-7.43-10.34-10.78,2.49-7.3,22.84,5,30.28,13.14.32-.23,5.55-10.37,11.65-5.79.92.7-2.81,4.1-2.79,10.14,0,8.41-.1,17.29-9.1,15.58"/><path class="cls-13" d="M2175.07,1031.77c-13.24-5.63-23.18-11.74-27.25-14.91-14.3-12.62-24.52-82.19-25-116.72,0-1.42,27,1.44,31.93,1.75,2.89,16.4,16.43,86.46,26.21,91.4,3.61,3.66-1.75,32.56-5.94,38.48"/><path class="cls-6" d="M2471.88,1466.62l33.68,8.75c5,1,18.94,2.63,36.51,4.67,7.65-6.88,7.44-19.45,2.21-21.73S2484,1444.1,2484,1444.1Z"/><path class="cls-27" d="M2559.35,1452.53c-.12,4.76-1.49,22.48-1.57,24.24s1.87,5.54,1.8,6.63c-.35,5.57-3.81,12.75-4.49,14.59s-4.88,31-5.48,31.13-4.16-.66-5-3.51c-.42-1.43-1.64-7.6-3.43-14.92s-4-15-5.27-18.55c-.79-2.24-2.08-3.64-2.87-5.57h0c-.74-1.49-5.83-8.71-5.56-9.62s5.21-6.74,6.22-6.61c.6.07,2.34,1.38,3.65,2.43h0a8,8,0,0,0,1.06-4.89c-.75-5.6-6.94-6.88-6.78-10s8.07-7.93,27.73-5.4"/><path class="cls-28" d="M2559.34,1452.67l.15-.12c.84-.2,4.3-.78,5-.39s2,12.71-1.45,34.48-6.53,39.95-13.4,42.46h0c.69-.83,4.79-29.29,5.46-31.11s4.14-9,4.49-14.59c.07-1.09-1.88-4.88-1.8-6.63s1.42-19.16,1.56-24.1"/><path class="cls-7" d="M2376.76,1075.65c14-5.86,18.47-26.6,13.11-38.35-20.65-7.61-44.83-21-69-26.9-17.57-1.64-29.4,3.17-33.95,11.35-18.8,33.79,74.49,50.63,89.82,53.9"/><path class="cls-8" d="M2251.9,1213.49c26.91-10.51,59.44-18.19,78.74,1.35,13.18,49.25-6.92,141.82,19.64,170.9,17.3,19,54.4,14.08,91.42,16.88,5.44.41,14.36,8.87,17.65,10.78,11.33,6.13,19.72,2.11,27.47,5s14,11.17,15.82,14,13.9-4.59,15.27,0-2.65,31.38-9.85,44.22c-51.76-11.7-111.16-17.63-170.72-23.93-7.29-.77-35.44-9.48-52-28.63-30.08-34.79-36-169.43-33.44-210.68"/><path class="cls-7" d="M2329.16,1012.77c15.16,6.61-1.92,121.57,4.33,203.58-40.2,8-123.09-1.26-133.3-2,1.41-66,5.81-153.52,25.27-189.5,12.08-22.32,27.15-27.42,49.39-27.31,15,.07,32.9,5.94,54.31,15.27"/><path class="cls-29" d="M2465.6,937.58c-3.21,6.26-19.55,33.14-30.25,50.56,6.67,2.17,16.77,4.61,25.44,6.74,7.49-18.83,16.11-41.18,19.16-52.37l-14.6-5.3a2.17,2.17,0,0,0,.25.37"/><path class="cls-7" d="M2370.94,1074.45c16.78,3.89,27,3.35,31.95,1.89,19.6-7.07,62.81-67.28,75.22-122.91.31-1.39-17.85-5-22.57-6.56-8.72,14.19-59.79,88-70.71,89-4.7,2.07-15.62,31.55-13.89,38.6"/><path class="cls-29" d="M2471.06,944.37c14.68,2.8,16.1-8.36,26.52-13.49,3-1.3,13.41-2.69,13.58-6.22.36-7.71-23.07-3.78-33,1.09-.21-.33-1.34-11.68-8.7-9.66-1.12.3,1.11,4.84-1.13,10.45-3.11,7.81-6.26,16.11,2.73,17.83"/><g class="cls-30"><rect class="cls-31" x="2262.75" y="978.72" width="35.52" height="41.33"/></g><path class="cls-32" d="M2263.31,991.28c8.9,1.17,19.3-1.36,22.87-8.32-.65,7.4-7.66,16.75-22.87,17Z"/><path class="cls-9" d="M2288.33,981.09a144.26,144.26,0,0,0,5.26-16.32l-7-2.78,2.93-10.33c-6.61-1-23.74-1.66-35-17.72-20.23-29,15.41-47.91,23.07-24.49,4.46-1.38,24.09-1.74,36.08,10.39,5.47,5.52,11.47,14.75,8.56,26.41,5.76,1.27,12,11.07,8.62,24.31s-18.54,26.62-34.34,25.5l-3-10.92c7-2.28,14.1-9.39,9.52-14.29-5.09-5.46-9.08,7.82-14.75,10.24"/><g class="cls-33"><rect class="cls-34" x="2245.59" y="939.93" width="62.06" height="57.1"/></g></g><path class="cls-35" d="M136.5,433.53a25.13,25.13,0,0,0-.05,14.11h358a32,32,0,0,0-.24-7.86c-3.47-22.26-25-17.34-41.06-24.32-6.52-3.08-7-19.9-20.22-27.5s-30.33,8.21-44.1,5.2-57-37.84-105.42-30.39-49.9,45.88-58.79,48.6-62.39-28.25-88.14,22.16"/><path class="cls-35" d="M2411.41,442.75c-7.45-2.11-19.59-4.46-35.26-6.75,14.3-14.18-7.91-48.1-26.87-42,.81-7.48-6.14-16.23-15.6-14.27a30.58,30.58,0,0,0-36.9-22.27,40.8,40.8,0,0,0-48.51-23.62,62,62,0,0,0-117.37,35.7,35.18,35.18,0,0,0-7.3-.77,34.82,34.82,0,0,0-34.15,41.62,13,13,0,0,0-6,20.75,523.6,523.6,0,0,0-63.48,11.62Z"/><path class="cls-35" d="M1637.41,111.24c0,3.22-1.79,6.36-5.05,9.37H1194a21.38,21.38,0,0,1-.17-9.79c7.54-34,73.72-14.17,90.5-22.32,5.74-3,16.1-41.33,49-54.84S1379.21,35,1386.19,35s28-40.1,66.68-34.47,43.28,66.61,48.23,67.74,8.5-8,18.63-6.43,13.07,27,18.93,28.33,18-6,28.15-6.47,24.54,18,31.3,17.56,34.46-16.44,39.3,10"/><g class="cls-3"><path class="cls-36" d="M905.8,778.52c-7.21,5.86-14.77,8.52-16.87,5.94s2.06-9.43,9.28-15.29,14.77-8.53,16.87-5.95-2.06,9.43-9.28,15.3m.37,31.64c-2.24,1.06-4.47,1.05-5,0s.9-2.81,3.14-3.88,4.47-1,5,0S908.42,809.1,906.17,810.16Zm-65.63,50.11c-3.24,1.66-6.41,1.94-7.09.61s1.39-3.74,4.62-5.41,6.41-1.94,7.09-.62S843.77,858.6,840.54,860.27Zm58.28-130.61c-2.77-2.82-16.31,2.25-23.73,8.68s-11.44,12.2-6.94,18.17C875.51,766.29,902.73,734,898.82,729.66Zm-30-24c1.28,1.34-.44,8.58-4.75,13.88s-7.67,6-9.91,5.43-5-4.33-3.45-8.83S865.52,700,868.78,705.67Zm-84.65-48.8c5.13,2,10.42,1.44,11.83-1.34s-1.59-6.67-6.71-8.71-10.42-1.43-11.83,1.34S779,654.84,784.13,656.87Zm3.35,46.44c.62-3.31,9.63-6.08,15.46-6.3s10.44,3.63,11.35,5.86,0,6.92-6.17,8.62S785.72,710.21,787.48,703.31Zm.23,45.91c.09-3.09,10.64-9.54,21.94-10.65s16.11,2,18,5.35.74,11-6.37,14.39S784.82,759.72,787.71,749.22Zm22.23,80.93c0-3,11.1-7.75,18.24-9.49s16.71-1,17.07,3.17-7.9,7.8-13.79,9.17S810,833.18,809.94,830.15Zm-13.62-37c0-4,13.23-9.79,23-10.38s16.71.73,17.67,8.14C838.59,803,796.53,798.93,796.32,793.11Zm-15-266.55c13.64-1.33,27.21-.87,30.61,4.58,7.23,11.58-13.25,58.13-1.28,63.3,4.75,1.11,15.87-48.62,15.39-56.86-.33-5.59-4.1-8.54-7.19-9.94a.75.75,0,0,1-.43-.84.76.76,0,0,1,.73-.61c9.51-.17,28.15,3.63,31.35,9.59,1.45,2.69,5.81,26.83-1.13,48.44-10.86,33.79-33.58,70.27-17.15,77,12.35,5.69,35.22-78.22,29.9-130.37a2.2,2.2,0,0,1,.82-2,2.22,2.22,0,0,1,2.1-.41c11.32,3.51,31.11,18,38.62,19.34,2,9,3.11,28.42-2.69,48-9.22,31.08-26.44,66.51-32.59,83.39-7.66,21,11.18,10.53,17.93-3.4,6.52-13.45,41.84-81.5,43.37-114.55a2.64,2.64,0,0,1,3.57-2.34c15,5.7,38.08,28.18,34.19,52.79-1.56,9.92-7.21,28.58-18.25,45.18-18.62,28-45.41,54.78-41.44,57.89,1.32,1.16,12.94-5.22,20.08-14.88C940.32,683,951,657.25,954.41,651.64c3.14-5.15,17.25-28,19.05-39.4a.75.75,0,0,1,1.42-.22c13.33,26.54,26.59,31.07,25.34,58.71-1.29,24.56-68.86,74-66.9,80.54s18.8,3.45,33.4-14,32.84-53.2,34.75-58.64c6,10.29,35.7,34.77,21.67,63.27-21.09,39.8-86,42.42-82.82,53,1,3.22,12.48-1.47,14.31-2.21,23.17-9.29,68.58-33.2,76.09-36.53-14.62,10.89,7.91,49.84-24.18,68.42-14.63,8.47-71.48-4.86-76.62,11.58-2.5,4.43,7.35,15,52.12-1.51-2.61,6.81,8.35,19.83,4.1,28.11s-15.34,11.63-20.71,17.4c-10.64,11.46-14.51,19.73-27,22.54-13,2.93-22.68-2.72-30.08-11.52-4.4-5.23-12.79-26.82-19.89-38.58h0c-10.3-29.65-70.51-154.25-106.93-326ZM771.75,636c5.56-9.28-19.43-17.93-37.58-36.82-18-18.74-32.53-41.79-23.48-46.54,4.09-1.85,41.13,29,51.41,25.14,5.81-2.91-17.42-37-12.75-44.49,1.07-1.46,15.83-5.09,30.83-6.66h0c15,123.19,81,288.05,97,331.91h0c2.28,24.76,28.31,67.86,11.79,92.47-24.08,35.89-65.22,23.09-81.66,25.94,21.83-6.18,63.1-67.4,47.53-79.46-1.73-1.61-8.18,3-14.12,12-9.52,14.4-19.32,36-27.48,49a25.08,25.08,0,0,1-23.85,11.92c-15-1.27-37.81-9.77-54.61-42.82A1.13,1.13,0,0,1,736,926c24.55,6.62,51.88-3.7,59.52-7.51,7.72-3.5,28.55-35.13,21.91-42.65-2.63-3-14.48-.09-27.81,7.86-20.47,12.22-46,32.66-58.85,33-21.28.6-45.33-37.3-52.32-58.85,35.63-8.07,62.13-3.8,72.23-6.3s46.25-12.39,45.41-17.07-44.92,2-53.74,3.24-54.76,12.64-75.54-.06c-8-5.16-27.08-51.92-19.19-73.07,18,14.19,44.78,4.71,56.65,27.67,11.49,2.67,72.44,6.53,75.07-.64,1.5-2.94-70.37-12.49-87.82-20.53-6.38-3.32-9.29-7.6-13-9s-29.19-6-32.3-18.94-.23-45.46,4.29-52.86C666,706.24,760.08,753.62,775,746.12c8.7-4.62-10.54-13.11-20.74-15.23s-86.75-22.75-107.07-55c-4.52-11.07,5.49-56,8.47-63.72,13.06,33.57,123.4,101,126.48,74.9.5-4.5-93.83-29.55-118-78.19-2.45-6.89,14-35.66,18.73-41.18,19.8,18.75,73.26,84.83,88.56,69.1Z"/></g><g class="cls-5"><path class="cls-37" d="M1882.91,1045.37c-8.43.9-25.25,2.11-34.65,7.37,1.76,14.61,9.17,50.14,13.08,62,3,8.93,9.4,13.36,16.18,12.82,6.49-.51,9-11.11,9.6-24.61.91-21.46-3.15-50.24-4.21-57.54"/><path class="cls-38" d="M1848.73,1062c10.72.84,29.73-1.43,40.37-3.51,0-15.24-3.32-61.4-17.81-81.23-4.31-2.48-20-12-23.78-8-15.45,16.1-3.29,78.25,1.22,92.72"/><rect class="cls-39" x="1919.82" y="961.54" width="58.05" height="30.9" transform="translate(492.88 2599.54) rotate(-74.72)"/><path class="cls-37" d="M1961.74,987.31c-12.6-27.69-47-13.38-17,11.34-4.22,32.08-61,68.94-74.11,96.51-6.57,19.16-3,34.88,2.44,36.82,27.46,9.85,96.46-127.59,88.68-144.67"/><path class="cls-40" d="M1815.6,1561l-21.41,24.69c-3.38,3.4-13.26,12.1-25.77,23-9.58-1.25-16.1-11.09-13.26-15.64s39.07-43,39.07-43Z"/><path class="cls-7" d="M1740.43,1596.56c2.62,3.62,13.1,16.61,14.09,17.92s1.51,5.29,2.14,6.09c3.23,4.13,9.72,7.84,11.23,8.9s20.26,21.4,20.8,21.18,2.86-2.72,2-5.37c-.44-1.34-2.77-6.75-5.28-13.37s-4.86-13.72-5.79-17.16.29-5.91-2.53-9.57-9.88-3.14-12.29-7.88,1.71-9,0-11.3-10.46-1.85-24.32,10.56"/><path class="cls-41" d="M1740.5,1596.66h-.18c-.75.29-3.73,1.69-4.06,2.35s5.23,10.88,19.45,25.91,26.3,27.45,33,25.73h0c-1-.28-19.28-20.11-20.77-21.17s-8-4.77-11.23-8.9c-.63-.8-1.14-4.77-2.14-6.09s-11.28-14.06-14-17.82"/><path class="cls-7" d="M1778.89,1608.91c-.22-1.53-.12-9.84-.81-10.4s-7.62-2.45-8.33-1.81a13.87,13.87,0,0,0-1.54,3.82c3,1.6,7,2.15,8.88,4.66a9.05,9.05,0,0,1,1.8,3.73"/><path class="cls-40" d="M1901,1563.94l4.08,32.42c.27,4.79.16,18-.07,34.55-7.33,6.3-19,4.58-20.49-.57s-6-57.82-6-57.82Z"/><path class="cls-7" d="M1877.31,1643.67c4.44.47,21.11,1.34,22.75,1.48s4.94,2.41,6,2.47c5.22.35,12.32-2,14.12-2.41s29.45-.8,29.65-1.34-.11-3.95-2.66-5.08c-1.29-.56-6.88-2.44-13.48-5s-13.45-5.55-16.64-7.16-4.2-4.15-8.81-4.51-8.94,5.27-14.07,3.9-5.57-7.3-8.45-7.52-8.36,6.56-8.38,25.16"/><path class="cls-41" d="M1877.44,1643.69l-.13.12c-.28.76-1.24,3.91-1,4.59s11.6,3.38,32.28,2.83,38-1.25,41.15-7.34h0c-.85.53-27.85.91-29.62,1.32s-8.9,2.76-14.12,2.41c-1-.06-4.32-2.33-6-2.47s-18-1-22.62-1.46"/><path class="cls-7" d="M1912.19,1623.29c-1.29-.86-7.41-6.48-8.29-6.34s-6.91,4-6.91,5a14,14,0,0,0,1.82,3.69c3.23-1.2,6.25-3.74,9.4-3.5a9.29,9.29,0,0,1,4,1.16"/><path class="cls-9" d="M1870.9,1193.42c22.73,31.44,102.75,132.19,74.35,199.51-26.56,59.54-129.78,175.46-142.14,186.45-6.53-2.17-21.18-23.58-23.47-28.16,5.15-5.5,10-15.17,10-16.83s-2.24-5.78-1.55-10.13,17.8-21.07,19.18-25.82.46-7.56,2.06-10.93,22.19-27.92,25.34-33.18,4.4-23.47,12.76-30.91c4.92-4.93,35.45-25.46,45.07-55.83S1801,1282,1782.34,1203.47Z"/><path class="cls-8" d="M1847.36,1195.34c3.76,23.86,53.07,297.57,58.94,400.31-6.13,1.55-33.09,5.55-39.21,5.84.57-13.74-8-27.25-8.42-31s1.55-9.84.34-15-10.73-12.06-12.22-18.41c-.49-2.49,2-10.22.83-13.94s-6.7-4.18-7.84-8.76,5.15-15.57,4-18.66-17.63-20.49-17.41-27.36c.58-4.7,8.34-6.41,7.45-12.94-8-58.43-75.52-173.5-80.18-264.49l51.75,6.87Z"/><path class="cls-14" d="M1741.41,980.25c-7.44,6.86-41.33,47.74-47.4,58.84l.52.62c5.4,6.26,18.75,18.09,26.41,24.49,2.39,2,4.22,3.46,5.1,4.07,6.57-6.4,20.54-23.93,29-35.75-.53,55.57-.73,114.65-1.5,167.75,19.65,4.78,107.41,8.87,121.27-1.53-4.55-62.75-1-171.12-11.42-225.08-7.94-7.18-33.21-12-41-13.19-21.32-.7-59.37,2.65-81,19.78"/><path class="cls-40" d="M1746.33,1185.87c-3.32-6.64-42.74-80.67-47.89-92.69.73-4.36,16.94-21.77,22.5-29-7.66-6.4-21-18.23-26.41-24.49-10.13,12.84-31.41,45.07-31.19,53.64.81,31.11,56.6,83.32,76.12,108,.69,5.15,8.93,26.34,32.06,23.93,4.17-.83-3.76-14.32-12-23.79-2.14-.35-4.13-.75-6-1.19l.06-4.72q.08-4.62.13-9.28a20.79,20.79,0,0,0-7.38-.4"/><g class="cls-42"><rect class="cls-43" x="1798.9" y="934.55" width="33.57" height="41.71"/></g><path class="cls-6" d="M1839.42,950.2c-.18,1-3.67,2.5-6.31,1.8s-3.34-2.1-2.95-3,3.67-1.33,5.37-.93,4,1.1,3.89,2.18"/><path class="cls-6" d="M1827.11,941.75c-3.66.91-7.43,7.91-9.48-1.5-.66-2.47-8.68-5.86-9-6.93-.48-2.29-3.47-14.64-2.77-17.13s6.14-4,6.69-5.89-3.29-7.45,1.3-10.17,11.69,3,15.89,2.48c2.41-.32,4.19-3.22,7.08-4.85a9.31,9.31,0,0,1,6.49-.92c13,4.72,7.79,41.17-.74,56.84-.61.33,1.65-8.4.43-9.41-2.48-1.74-13-3.27-15.94-2.52"/><path class="cls-6" d="M1803.77,922.3s1.5,12.5,2,15.3c-7.43-2.89-14.07-14-9.79-17.69,1.5-1.3,6.61-.66,7.78,2.39"/><path class="cls-9" d="M1835.53,948c-1.7-.4-5,0-5.37.93s.31,2.35,2.95,3,6.13-.76,6.31-1.8-2.18-1.78-3.89-2.18m-29.62-31.83c-.7,2.49,2.29,14.84,2.77,17.13.27,1.07,8.29,4.46,9,6.93,2,9.41,5.82,2.41,9.48,1.5,3-.75,13.46.78,15.94,2.52,1.22,1,1.26,6.54,1.87,6.21-1.6,2.94-5.61,8.35-7.34,9.48a16.51,16.51,0,0,1-9.6,1.89,22.11,22.11,0,0,1-14.19-6.52c-2.44-2.49-7-11.15-8-17.68v0c-.51-2.8-2-15.3-2-15.3-1.12-1.41-4.47-2.33-6-1s-2.6,9.51,7.76,16.35c-.08,0-2.88,3.79-3,3.82-1.09.39-3.25,1.49-3.69,2.27-7.77-5.19-3.36-9.13-5-12.56s-7.35-7.78-8.24-12.87,1.66-8.32,2.25-10.69-3.08-13.81-2.55-16,4.44-2.45,5.28-3.92c1.06-2.27-1.76-7.33.29-10.19s7.2-.68,7.89-.84c3.11-.87,8.82-8.41,18.76-9s11.15,6.28,12.86,6.7,7.07-2.8,12.39-1.68,8.19,4.47,9,6.71a7.55,7.55,0,0,1,7.27,5.61c1.55,5.4-2.87,12.31-3.17,14-.42,2.47,4,5.11,3.79,8.13-.24,3.45-6.29,6.13-8.5,8.87-.09-9.45-2.32-17.21-7.86-19.22a9.36,9.36,0,0,0-6.49.92c-2.89,1.63-4.67,4.53-7.08,4.85-4.2.54-11.29-5.21-15.89-2.48s-.75,8.31-1.3,10.17S1806.61,913.71,1805.91,916.19Z"/></g></svg>